<?xml version="1.0" encoding="iso-8859-1"?>
<!-- Generator: Adobe Illustrator 18.0.0, SVG Export Plug-In . SVG Version: 6.00 Build 0)  -->
<!DOCTYPE svg PUBLIC "-//W3C//DTD SVG 1.1//EN" "http://www.w3.org/Graphics/SVG/1.1/DTD/svg11.dtd">
<svg version="1.1" id="Capa_1" xmlns="http://www.w3.org/2000/svg" xmlns:xlink="http://www.w3.org/1999/xlink" x="0px" y="0px"
         viewBox="0 0 60 60" style="enable-background:new 0 0 60 60;" xml:space="preserve">
<g>
        <path d="M53,46H41c-0.552,0-1,0.447-1,1s0.448,1,1,1h12c0.552,0,1-0.447,1-1S53.552,46,53,46z"/>
        <path d="M28.555,33.532c0.614,0.845,1.563,1.375,2.604,1.457C31.252,34.996,31.345,35,31.438,35c0.941,0,1.847-0.372,2.518-1.044
                c0.738-0.737,1.114-1.757,1.033-2.798c-0.082-1.04-0.612-1.989-1.459-2.605l-12.944-9.363c-0.398-0.289-0.946-0.244-1.293,0.104
                c-0.347,0.348-0.391,0.896-0.103,1.293L28.555,33.532z M32.356,30.172c0.371,0.27,0.604,0.686,0.639,1.143
                c0.036,0.456-0.129,0.903-0.453,1.228c-0.324,0.324-0.769,0.489-1.228,0.453c-0.457-0.036-0.873-0.269-1.141-0.637l-5.712-7.897
                L32.356,30.172z"/>
        <path d="M60,30C60,13.458,46.542,0,30,0c-0.552,0-1,0.447-1,1v13.291c0,0.553,0.448,1,1,1s1-0.447,1-1V2.018
                C45.978,2.546,58,14.896,58,30c0,2.857-0.43,5.667-1.281,8.375c-0.078-0.088-0.167-0.165-0.247-0.251
                c-0.164-0.175-0.331-0.347-0.505-0.513c-0.157-0.15-0.317-0.294-0.48-0.436c-0.159-0.138-0.321-0.271-0.487-0.4
                c-0.183-0.143-0.367-0.283-0.557-0.417c-0.163-0.114-0.33-0.221-0.499-0.328c-0.199-0.126-0.398-0.252-0.604-0.367
                c-0.178-0.1-0.361-0.19-0.544-0.281c-0.204-0.102-0.407-0.206-0.616-0.297c-0.205-0.09-0.417-0.166-0.628-0.245
                c-0.197-0.074-0.391-0.153-0.591-0.217c-0.243-0.078-0.494-0.139-0.743-0.203c-0.178-0.045-0.352-0.099-0.532-0.137
                c-0.296-0.063-0.599-0.104-0.902-0.146c-0.141-0.02-0.28-0.049-0.422-0.064C47.915,34.026,47.461,34,47,34c-7.168,0-13,5.832-13,13
                c0,0.46,0.026,0.915,0.073,1.363c0.015,0.144,0.045,0.284,0.065,0.426c0.042,0.301,0.083,0.603,0.145,0.897
                c0.038,0.182,0.093,0.358,0.139,0.538c0.063,0.247,0.123,0.495,0.201,0.736c0.065,0.203,0.145,0.399,0.219,0.598
                c0.078,0.208,0.153,0.417,0.242,0.62c0.092,0.211,0.197,0.417,0.301,0.623c0.09,0.181,0.179,0.361,0.277,0.537
                c0.117,0.208,0.244,0.41,0.372,0.611c0.105,0.165,0.21,0.33,0.323,0.49c0.135,0.193,0.277,0.379,0.423,0.565
                c0.128,0.163,0.258,0.322,0.393,0.478c0.144,0.166,0.291,0.329,0.443,0.488c0.163,0.17,0.332,0.334,0.504,0.496
                c0.088,0.082,0.166,0.172,0.257,0.252C35.667,57.569,32.858,58,30,58C14.561,58,2,45.439,2,30c0-7.46,2.9-14.479,8.167-19.765
                c0.39-0.392,0.389-1.024-0.003-1.414C9.773,8.43,9.139,8.43,8.75,8.823C3.107,14.487,0,22.008,0,30c0,16.542,13.458,30,30,30
                c3.55,0,7.028-0.627,10.35-1.85C42.299,59.316,44.568,60,47,60c7.168,0,13-5.832,13-13c0-2.432-0.683-4.701-1.85-6.65
                C59.373,37.028,60,33.55,60,30z M47,58c-2.226,0-4.296-0.669-6.029-1.81c-0.366-0.24-0.713-0.5-1.044-0.777
                c-0.06-0.051-0.116-0.107-0.175-0.159c-0.249-0.218-0.487-0.447-0.714-0.685c-0.1-0.105-0.197-0.212-0.292-0.322
                c-0.18-0.205-0.351-0.417-0.515-0.633c-0.089-0.118-0.181-0.233-0.265-0.354c-0.205-0.294-0.395-0.598-0.569-0.91
                c-0.045-0.082-0.089-0.164-0.133-0.246c-0.166-0.315-0.317-0.638-0.451-0.969c-0.052-0.129-0.096-0.262-0.144-0.393
                c-0.095-0.263-0.183-0.53-0.258-0.8c-0.039-0.141-0.076-0.282-0.109-0.425c-0.067-0.284-0.12-0.572-0.164-0.863
                c-0.019-0.127-0.044-0.254-0.059-0.383C36.031,47.852,36,47.428,36,47c0-6.065,4.935-11,11-11c0.428,0,0.852,0.031,1.271,0.08
                c0.129,0.015,0.255,0.039,0.383,0.059c0.29,0.044,0.578,0.097,0.862,0.164c0.143,0.034,0.285,0.07,0.426,0.11
                c0.27,0.075,0.536,0.162,0.799,0.257c0.132,0.048,0.265,0.092,0.394,0.145c0.329,0.134,0.651,0.284,0.965,0.449
                c0.085,0.044,0.169,0.089,0.252,0.136c0.311,0.174,0.614,0.363,0.907,0.567c0.122,0.084,0.237,0.176,0.355,0.266
                c0.217,0.164,0.429,0.334,0.633,0.515c0.109,0.096,0.217,0.193,0.322,0.292c0.238,0.227,0.466,0.465,0.685,0.714
                c0.052,0.06,0.108,0.115,0.159,0.175c0.277,0.33,0.536,0.677,0.776,1.042C57.331,42.704,58,44.774,58,47C58,53.065,53.065,58,47,58
                z"/>
</g>
<g>
</g>
<g>
</g>
<g>
</g>
<g>
</g>
<g>
</g>
<g>
</g>
<g>
</g>
<g>
</g>
<g>
</g>
<g>
</g>
<g>
</g>
<g>
</g>
<g>
</g>
<g>
</g>
<g>
</g>
</svg>
